HIERARCHY
ROOT Hips
{
	OFFSET 0.00000 0.00000 0.00000
	CHANNELS 6 Xposition Yposition Zposition Zrotation Yrotation Xrotation 
	JOINT LHipJoint
	{
		OFFSET 0 0 0
		CHANNELS 3 Zrotation Yrotation Xrotation
		JOINT LeftHip
		{
			OFFSET 1.52977 -1.71332 0.88991
			CHANNELS 3 Zrotation Yrotation Xrotation
			JOINT LeftKnee
			{
				OFFSET 2.23949 -6.15296 0.00000
				CHANNELS 3 Zrotation Yrotation Xrotation
				JOINT LeftAnkle
				{
					OFFSET 2.68396 -7.37412 0.00000
					CHANNELS 3 Zrotation Yrotation Xrotation
					JOINT LeftToe
					{
						OFFSET 0.20538 -0.56428 2.52710
						CHANNELS 3 Zrotation Yrotation Xrotation
						End Site
						{
							OFFSET 0.00000 -0.00000 1.29919
						}
					}
				}
			}
		}
	}
	JOINT RHipJoint
	{
		OFFSET 0 0 0
		CHANNELS 3 Zrotation Yrotation Xrotation
		JOINT RightHip
		{
			OFFSET -1.45689 -1.71333 0.88991
			CHANNELS 3 Zrotation Yrotation Xrotation
			JOINT RightKnee
			{
				OFFSET -2.36700 -6.50329 0.00000
				CHANNELS 3 Zrotation Yrotation Xrotation
				JOINT RightAnkle
				{
					OFFSET -2.69814 -7.41308 0.00000
					CHANNELS 3 Zrotation Yrotation Xrotation
					JOINT RightToe
					{
						OFFSET -0.18734 -0.51471 2.37479
						CHANNELS 3 Zrotation Yrotation Xrotation
						End Site
						{
							OFFSET -0.00000 -0.00000 1.22113
						}
					}
				}
			}
		}
	}
	JOINT lowerback
	{
		OFFSET 0 0 0
		CHANNELS 3 Zrotation Yrotation Xrotation
		JOINT Chest
		{
			OFFSET 0.04294 2.14638 -0.31163
			CHANNELS 3 Zrotation Yrotation Xrotation
			JOINT Chest2
			{
				OFFSET -0.00400 2.17216 0.01486
				CHANNELS 3 Zrotation Yrotation Xrotation
				JOINT lowerneck
				{
					OFFSET 0 0 0
					CHANNELS 3 Zrotation Yrotation Xrotation
					JOINT Neck
					{
						OFFSET 0.03869 1.76598 0.14916
						CHANNELS 3 Zrotation Yrotation Xrotation
						JOINT Head
						{
							OFFSET -0.00760 1.75513 -0.18948
							CHANNELS 3 Zrotation Yrotation Xrotation
							End Site
							{
								OFFSET -0.00601 1.82444 -0.08310
							}
						}
					}
				}
				JOINT LeftCollar
				{
					OFFSET 0 0 0
					CHANNELS 3 Zrotation Yrotation Xrotation
					JOINT LeftShoulder
					{
						OFFSET 3.73696 0.92058 0.01733
CHANNELS 3 Zrotation Xrotation Yrotation
						JOINT LeftElbow
						{
OFFSET 0 -5.227710 0.000000
CHANNELS 3 Zrotation Xrotation Yrotation
							JOINT LeftWrist
							{
OFFSET 0 -3.452510 0.000000
CHANNELS 3 Zrotation Xrotation Yrotation
								JOINT lhand
								{
									OFFSET 0 0 0
CHANNELS 3 Zrotation Xrotation Yrotation
									JOINT LFingers
									{
OFFSET 0 -0.552120 0.000000
CHANNELS 3 Zrotation Xrotation Yrotation
										End Site
										{
OFFSET 0 -0.445130 0.000000
										}
									}
								}
								JOINT LThumb
								{
OFFSET 0 0.000000 0.000000
CHANNELS 3 Zrotation Xrotation Yrotation
									End Site
									{
OFFSET 0 -0.451930 0.451930
									}
								}
							}
						}
					}
				}
				JOINT RightCollar
				{
					OFFSET 0 0 0
					CHANNELS 3 Zrotation Yrotation Xrotation
					JOINT RightShoulder
					{
						OFFSET -3.63819 0.83094 -0.13694
CHANNELS 3 Zrotation Xrotation Yrotation
						JOINT RightElbow
						{
OFFSET 0 -5.239800 -0.000000
CHANNELS 3 Zrotation Xrotation Yrotation
							JOINT RightWrist
							{
OFFSET 0 -3.480420 -0.000000
CHANNELS 3 Zrotation Xrotation Yrotation
								JOINT rhand
								{
									OFFSET 0 0 0
CHANNELS 3 Zrotation Xrotation Yrotation
									JOINT RFingers
									{
OFFSET 0 -0.618710 0.000000
CHANNELS 3 Zrotation Xrotation Yrotation
										End Site
										{
OFFSET 0 -0.498820 0.000000
										}
									}
								}
								JOINT RThumb
								{
OFFSET 0 0.000000 0.000000
CHANNELS 3 Zrotation Xrotation Yrotation
									End Site
									{
OFFSET 0 -0.506440 0.506440
									}
								}
							}
						}
					}
				}
			}
		}
	}
}
MOTION
Frames: 5
Frame Time: 0.008333333333333333
-4.303665 17.148678 14.914702 -177.882574 58.201419 -174.604093 0.000000 0.000000 0.000000 -19.260437 1.333505 -4.694744 0.673300 5.246941 14.614202 0.530565 -2.648171 -13.107113 0.064396 -1.637052 -4.503768 0.000000 0.000000 0.000000 25.078955 14.445654 -1.014189 -2.419070 -9.689202 27.976102 -1.893074 -6.272011 -28.865260 -0.033580 -1.183091 3.252735 2.055626 -0.876411 4.249950 -0.307313 -1.066396 0.679493 -1.407824 -0.539448 -1.727711 3.503161 1.271254 -0.760691 -1.040961 1.694570 4.273328 -0.886894 0.896356 1.494524 0.000000 0.000000 0.000000 -0.120000 -1.944285 -11.373890 4.938419 -8.480457 0.366380 20.768070 2.695439 -10.706918 0.000000 0.000000 0.000000 -7.125000 0.000000 0.000000 -5.615459 41.346703 -0.507772 0.000000 0.000000 0.000000 4.220732 2.814978 13.280552 -8.778976 -14.807454 -1.142959 -21.613948 20.850470 6.320011 0.000000 0.000000 0.000000 7.125000 0.000000 0.000000 4.335672 36.743491 0.882559
-4.293895 17.147172 14.903067 -177.865723 58.153990 -174.534669 0.000000 0.000000 0.000000 -19.258489 1.376265 -4.723532 0.673178 5.246594 14.613345 0.533794 -2.771990 -13.130171 0.061889 -1.605073 -4.415437 0.000000 0.000000 0.000000 25.087616 14.455344 -0.983329 -2.412650 -9.677345 27.937924 -1.902200 -6.303077 -28.942503 -0.033117 -1.175206 3.231035 2.046056 -0.882866 4.231278 -0.303445 -1.075939 0.674134 -1.398017 -0.544200 -1.722861 3.504406 1.267889 -0.767733 -1.029067 1.689422 4.276928 -0.883383 0.893972 1.496628 0.000000 0.000000 0.000000 -0.118083 -1.934723 -11.534838 4.937794 -8.479511 0.366239 20.787671 2.562633 -10.730216 0.000000 0.000000 0.000000 -7.125000 0.000000 0.000000 -5.601734 41.373210 -0.502878 0.000000 0.000000 0.000000 4.187601 2.787795 13.250934 -8.777156 -14.804533 -1.142539 -21.617522 20.857144 6.313772 0.000000 0.000000 0.000000 7.125000 0.000000 0.000000 4.332056 36.737050 0.882522
-4.284225 17.145689 14.891514 -177.846853 58.119815 -174.460412 0.000000 0.000000 0.000000 -19.255767 1.419838 -4.751109 0.672593 5.244374 14.607025 0.537328 -2.892511 -13.158746 0.059482 -1.573658 -4.328928 0.000000 0.000000 0.000000 25.093935 14.465281 -0.956415 -2.405945 -9.664797 27.897775 -1.911268 -6.327752 -29.015733 -0.032394 -1.162473 3.196049 2.035212 -0.887929 4.213762 -0.300885 -1.083746 0.667545 -1.389036 -0.548122 -1.719978 3.504994 1.267104 -0.772940 -1.016705 1.687598 4.275463 -0.879569 0.893300 1.496893 0.000000 0.000000 0.000000 -0.113047 -1.928582 -11.686309 4.935678 -8.475863 0.365996 20.806451 2.433643 -10.753528 0.000000 0.000000 0.000000 -7.125000 0.000000 0.000000 -5.588803 41.399753 -0.498056 0.000000 0.000000 0.000000 4.151112 2.762413 13.227833 -8.777513 -14.805218 -1.142604 -21.617820 20.857769 6.308656 0.000000 0.000000 0.000000 7.125000 0.000000 0.000000 4.331280 36.731652 0.882902
-4.274412 17.144102 14.880099 -177.823317 58.099646 -174.378674 0.000000 0.000000 0.000000 -19.249780 1.466501 -4.779238 0.671587 5.240591 14.596001 0.541224 -3.012002 -13.193141 0.057174 -1.542751 -4.243615 0.000000 0.000000 0.000000 25.099137 14.475918 -0.932741 -2.398438 -9.650903 27.853484 -1.920275 -6.345554 -29.084450 -0.031387 -1.144283 3.145930 2.023799 -0.891168 4.194909 -0.298902 -1.088966 0.660180 -1.380595 -0.550726 -1.716861 3.503489 1.268198 -0.778137 -1.003716 1.688298 4.269040 -0.875249 0.893728 1.495517 0.000000 0.000000 0.000000 -0.105325 -1.929151 -11.829163 4.931008 -8.468042 0.365230 20.826576 2.308519 -10.780127 0.000000 0.000000 0.000000 -7.125000 0.000000 0.000000 -5.575173 41.429723 -0.492706 0.000000 0.000000 0.000000 4.113174 2.739083 13.206967 -8.779953 -14.808994 -1.143228 -21.617687 20.849244 6.303321 0.000000 0.000000 0.000000 7.125000 0.000000 0.000000 4.330885 36.725893 0.883428
-4.264301 17.142417 14.868601 -177.797669 58.089717 -174.289344 0.000000 0.000000 0.000000 -19.242034 1.517144 -4.809063 0.670383 5.235851 14.582402 0.545483 -3.132619 -13.232695 0.054867 -1.511587 -4.157727 0.000000 0.000000 0.000000 25.102300 14.483249 -0.911969 -2.390284 -9.635602 27.804589 -1.929166 -6.356749 -29.148543 -0.030100 -1.119903 3.078658 2.012535 -0.893100 4.174469 -0.298050 -1.092666 0.652534 -1.373401 -0.552600 -1.713284 3.499301 1.270566 -0.783266 -0.988802 1.690566 4.257968 -0.869717 0.894883 1.492717 0.000000 0.000000 0.000000 -0.095318 -1.937032 -11.965251 4.923134 -8.454752 0.364100 20.851563 2.190930 -10.810480 0.000000 0.000000 0.000000 -7.125000 0.000000 0.000000 -5.557769 41.464246 -0.486384 0.000000 0.000000 0.000000 4.075621 2.718602 13.186486 -8.784283 -14.815999 -1.144317 -21.607552 20.829703 6.300450 0.000000 0.000000 0.000000 7.125000 0.000000 0.000000 4.339165 36.722134 0.885550
